C:\GBW_MyPrograms\KinderuniversiteitApp\Resultaten\Ellis\SpongeBob\SpongeBob_v1.mot
version=1
nRows=16
nColumns=29
inDegrees=yes
endheader
                time	         pelvis_tilt	           pelvis_tx	           pelvis_ty	       hip_flexion_l	       hip_flexion_r	        knee_angle_l	        knee_angle_r	       ankle_angle_l	       ankle_angle_r	    lumbar_extension	hamstrings_r/activation	bifemsh_r/activation	glut_max_r/activation	iliopsoas_r/activation	rect_fem_r/activation	  vasti_r/activation	gastroc_r/activation	 soleus_r/activation	tib_ant_r/activation	hamstrings_l/activation	bifemsh_l/activation	glut_max_l/activation	iliopsoas_l/activation	rect_fem_l/activation	  vasti_l/activation	gastroc_l/activation	 soleus_l/activation	tib_ant_l/activation	
          1.33485060	        -10.17478682	          1.65527633	          0.91037355	         26.62260144	         -7.87323683	         -9.16540315	         -9.50750183	          2.97674003	         -7.47529271	          2.20163208	          0.05492903	          0.17997146	          0.05317507	          0.89265181	          0.06414742	          0.05124275	          0.34174097	          0.58104210	          0.05059610	          0.37550997	          0.06174775	          0.11538497	          0.05622001	          0.09801530	          0.12179601	          0.05755119	          0.06139546	          0.27482309	
          1.34374961	        -10.12350941	          1.66877833	          0.90881442	         25.87273350	         -7.43273666	         -8.67551556	        -11.86118274	          2.70166217	         -8.06914746	          2.43172484	          0.05429328	          0.16053349	          0.05025821	          0.77794327	          0.06050617	          0.05088194	          0.29772430	          0.50649064	          0.05051325	          0.34246933	          0.06187988	          0.14932608	          0.05378262	          0.08654685	          0.19609102	          0.05109065	          0.05394842	          0.34830397	
          1.35264861	        -10.06930175	          1.68242657	          0.90719706	         25.11654811	         -6.80660584	         -8.85118289	        -14.53358886	          2.43963740	         -8.84981768	          2.67870425	          0.06140690	          0.14289228	          0.05222842	          0.67783108	          0.05633308	          0.05090367	          0.25936976	          0.44120012	          0.05039720	          0.29986580	          0.06937319	          0.20788119	          0.05260882	          0.07603950	          0.22888944	          0.06020740	          0.06009062	          0.32160820	
          1.36154762	        -10.01544758	          1.69609714	          0.90564608	         24.31252954	         -5.98341361	         -9.13841665	        -17.48911520	          2.48510548	         -9.95786419	          2.93004213	          0.06127423	          0.12705847	          0.07388439	          0.59042399	          0.05630792	          0.05070881	          0.22595949	          0.38428266	          0.05040168	          0.26216342	          0.07478024	          0.27635987	          0.05192356	          0.06680390	          0.24140829	          0.05351562	          0.05286187	          0.37490428	
          1.37044662	         -9.96691895	          1.70958225	          0.90433199	         23.53915712	         -4.95366948	         -9.46430671	        -20.68557749	          2.65807070	        -11.42616783	          3.16416229	          0.06087779	          0.11342056	          0.07004519	          0.51433365	          0.06208692	          0.05712624	          0.19686616	          0.33470157	          0.32712049	          0.22981835	          0.07273499	          0.36226366	          0.05101318	          0.05881282	          0.31432470	          0.05005948	          0.05556364	          0.32776667	
          1.37934562	         -9.92553115	          1.72269236	          0.90334341	         22.86095623	         -3.75180004	         -9.95835105	        -24.05215432	          3.31007436	        -12.77659255	          3.35886555	          0.06009730	          0.10384063	          0.06742636	          0.44816915	          0.08948350	          0.05515231	          0.17165849	          0.29155277	          0.31372821	          0.20081504	          0.06909029	          0.37970907	          0.05048349	          0.05333747	          0.37358269	          0.05464082	          0.16087944	          0.28575087	
          1.38824463	         -9.89391476	          1.73534894	          0.90281590	         22.25486641	         -2.43874892	        -10.52283325	        -27.42544424	          4.08865635	        -13.21289784	          3.50748924	          0.05916232	          0.10467366	          0.05958930	          0.39062731	          0.11692347	          0.05132657	          0.15002216	          0.25399731	          0.38402471	          0.17625408	          0.07105080	          0.35970135	          0.05113091	          0.05317243	          0.35915393	          0.05517762	          0.21993979	          0.24926984	
          1.39714363	         -9.87087055	          1.74758783	          0.90284227	         21.68424787	         -1.05472940	        -11.07506028	        -30.68216265	          4.79475425	        -13.22504645	          3.61359729	          0.06016788	          0.12468001	          0.05269826	          0.34071287	          0.16718272	          0.05067993	          0.13201181	          0.22130680	          0.39085368	          0.15621004	          0.07510441	          0.33624611	          0.05179309	          0.05482900	          0.31895275	          0.06840742	          0.28277590	          0.21793117	
          1.40604264	         -9.85589417	          1.75947780	          0.90336924	         21.12172808	          0.36440134	        -11.56226115	        -33.73949079	          5.32048744	        -13.02815526	          3.68577161	          0.06467044	          0.15268292	          0.05096997	          0.29763953	          0.23604590	          0.05063259	          0.11968245	          0.19284350	          0.37274448	          0.14510631	          0.08074871	          0.31275145	          0.05233703	          0.05580523	          0.28014889	          0.11252900	          0.33654212	          0.19201790	
          1.41494164	         -9.84820009	          1.77109113	          0.90429179	         20.54111579	          1.78934580	        -11.94374563	        -36.54378818	          5.64511217	        -12.69497577	          3.73265705	          0.07343651	          0.18313681	          0.05137983	          0.26134815	          0.29455326	          0.05065280	          0.11066026	          0.16804982	          0.35282519	          0.14027463	          0.08714898	          0.29109205	          0.05205829	          0.05585775	          0.24529058	          0.15701185	          0.37614996	          0.17103390	
          1.42384065	         -9.84696532	          1.78248659	          0.90550412	         19.92361486	          3.20154063	        -12.19780361	        -39.06794122	          5.80633512	        -12.27653486	          3.76109858	          0.08134623	          0.21195285	          0.05131733	          0.23217312	          0.33948310	          0.05067101	          0.10189375	          0.14645596	          0.32963813	          0.14223802	          0.09586188	          0.26891527	          0.05205402	          0.05593335	          0.21445717	          0.20042933	          0.40454578	          0.15196142	
          1.43273965	         -9.85139137	          1.79370386	          0.90691604	         19.26057237	          4.59221205	        -12.31852271	        -41.30762374	          5.83674410	        -11.79243416	          3.77538060	          0.08621484	          0.24010159	          0.05125577	          0.21022515	          0.36906323	          0.05071544	          0.09264177	          0.12765144	          0.30725725	          0.14725010	          0.10881406	          0.24646152	          0.05217472	          0.05612769	          0.18736039	          0.24267658	          0.42463431	          0.13411370	
          1.44163865	         -9.86085814	          1.80476668	          0.90845464	         18.55235416	          5.95920711	        -12.31360139	        -43.27206481	          5.76302962	        -11.25095310	          3.77782318	          0.08711246	          0.26710178	          0.05120516	          0.19433086	          0.38400295	          0.05078026	          0.08361430	          0.11128013	          0.28629370	          0.15447820	          0.13396406	          0.22533122	          0.05237539	          0.05616092	          0.16362732	          0.28354937	          0.43824308	          0.11791169	
          1.45053766	         -9.87479417	          1.81568822	          0.91006075	         17.80588523	          7.30394102	        -12.20124552	        -44.97798085	          5.60896582	        -10.65170455	          3.76944172	          0.08478086	          0.29267750	          0.05134723	          0.18282170	          0.38757138	          0.05088541	          0.07520456	          0.09703167	          0.26753235	          0.16217218	          0.19494307	          0.20778241	          0.05237228	          0.05573096	          0.14289101	          0.32282136	          0.44770504	          0.10349786	
          1.45943666	         -9.89251014	          1.82647517	          0.91168502	         17.03334742	          8.62925967	        -12.00859426	        -46.44515969	          5.39567364	         -9.99482587	          3.75039149	          0.08041453	          0.31675066	          0.05173969	          0.17478984	          0.38241925	          0.05104739	          0.06771033	          0.08463976	          0.25087706	          0.16744814	          0.27787969	          0.19331617	          0.05218410	          0.05504888	          0.12480823	          0.35995904	          0.45469409	          0.09081464	
          1.46833567	         -9.91314060	          1.83713048	          0.91328618	         16.24917032	          9.93820687	        -11.76626708	        -47.69400065	          5.14092629	         -9.28179079	          3.72018920	          0.07472703	          0.33984740	          0.05172014	          0.16980949	          0.37066679	          0.05123335	          0.06139800	          0.07388198	          0.23627972	          0.16912836	          0.35807806	          0.17953625	          0.05227527	          0.05467912	          0.10906638	          0.39416129	          0.46038335	          0.07974109	
